# xmcd CD database file
#
# Track frame offsets:
#	150
#	14055
#	27765
#	47227
#	64012
#	81485
#	100597
#	119250
#	135792
#	151452
#
# Disc length: 2253 seconds
#
# Revision: 0
# Processed by: cddbd v1.5PL3 Copyright (c) Steve Scherf et al.
# Submitted via: CDex 1.51
#
DISCID=7a08cb0a
DTITLE=安田成美 - ginger
DYEAR=1988
DGENRE=J-Pop
TTITLE0=思い出のロックンロール
TTITLE1=浜辺のポートレイト
TTITLE2=パパを愛したように
TTITLE3=夢は夢の中へ
TTITLE4=MOMO
TTITLE5=夜のパティオで
TTITLE6=ハイウェイ歩けば
TTITLE7=突然彼を奪われて
TTITLE8=初めての街
TTITLE9=星の降る夜
EXTD=YEAR: 1988
EXTT0=
EXTT1=
EXTT2=
EXTT3=
EXTT4=
EXTT5=
EXTT6=
EXTT7=
EXTT8=
EXTT9=
PLAYORDER=
